<?xml version="1.0" encoding="iso-8859-1"?>
<!-- Generator: Adobe Illustrator 19.0.0, SVG Export Plug-In . SVG Version: 6.00 Build 0)  -->
<svg version="1.1" id="Capa_1" xmlns="http://www.w3.org/2000/svg" xmlns:xlink="http://www.w3.org/1999/xlink" x="0px" y="0px"
	 viewBox="0 0 480 480" style="enable-background:new 0 0 480 480;" xml:space="preserve">
<path style="fill:#EBE5DD;" d="M192,56V40c0-17.673,14.327-32,32-32h32c17.673,0,32,14.327,32,32v16c0,8.837,7.163,16,16,16h104
	v254.039c0,20.351-12.834,38.49-32.025,45.264L272,408v32h16v32h-96v-32h16v-32l-103.975-36.697C84.834,364.53,72,346.39,72,326.039
	V72h104C184.837,72,192,64.837,192,56z"/>
<circle style="fill:#D4C8B8;" cx="240" cy="56" r="16"/>
<path style="fill:#FFF8F0;" d="M376,120c0-8.837-7.164-16-16-16H120c-8.836,0-16,7.163-16,16v112h272V120z"/>
<path style="fill:#A6001E;" d="M104,232v88.139c0,5.113,2.394,9.897,6.53,12.903c14.026,10.193,49.7,32.915,97.79,40.398h63.36
	c48.09-7.483,83.764-30.205,97.79-40.398c4.136-3.006,6.53-7.79,6.53-12.903V232H104z"/>
<rect x="208" y="432" style="fill:#D4C8B8;" width="64" height="16"/>
<path style="fill:#F40E34;" d="M240,136l-48.102,110.634C176.837,281.276,202.226,320,240,320h0
	c37.774,0,63.163-38.724,48.102-73.366L240,136z"/>
<g>
	
		<rect x="216.003" y="268.686" transform="matrix(-0.7071 0.7071 -0.7071 -0.7071 580.3856 319.5927)" style="fill:#EBE5DD;" width="16" height="22.624"/>
	
		<rect x="202.458" y="228.005" transform="matrix(-0.3715 0.9284 -0.9284 -0.3715 526.3243 115.7038)" style="fill:#EBE5DD;" width="43.08" height="16"/>
</g>
<path d="M408,64H304c-4.414,0-8-3.59-8-8V40c0-22.055-17.945-40-40-40h-32c-22.055,0-40,17.945-40,40v16c0,4.41-3.586,8-8,8H72
	c-4.422,0-8,3.582-8,8v254.039c0,23.699,15.016,44.922,37.359,52.809L200,413.66V432h-8c-4.422,0-8,3.582-8,8v32
	c0,4.418,3.578,8,8,8h96c4.422,0,8-3.582,8-8v-32c0-4.418-3.578-8-8-8h-8v-18.34l98.641-34.813
	C400.984,370.961,416,349.738,416,326.039V72C416,67.582,412.422,64,408,64z M280,464h-80v-16h8h64h8V464z M277.147,364.344
	C272.353,353.514,260.933,344,240,344s-32.353,9.514-37.147,20.344c-43.347-8.254-75.45-28.932-87.619-37.773
	c-2.055-1.492-3.234-3.836-3.234-6.434V120c0-4.41,3.586-8,8-8h240c4.414,0,8,3.59,8,8v200.137c0,2.598-1.18,4.941-3.234,6.434
	C352.597,335.412,320.494,356.09,277.147,364.344z M208.32,373.441l7.906,1.234C217.078,369.195,221.305,360,240,360
	s22.922,9.195,23.773,14.676l7.906-1.234l-7.844,1.574c0.117,0.574,0.156,0.98,0.164,0.984v32v24h-48v-24v-31.828
	c0.008-0.176,0.047-0.582,0.164-1.156L208.32,373.441z M400,326.039c0,16.93-10.727,32.086-26.688,37.723L280,396.693v-16.608
	c46.596-8.853,81.103-31.075,94.172-40.57c6.156-4.473,9.828-11.715,9.828-19.379V120c0-13.234-10.766-24-24-24H120
	c-13.234,0-24,10.766-24,24v200.137c0,7.664,3.672,14.906,9.828,19.379c13.069,9.495,47.576,31.717,94.172,40.57v16.608
	l-93.313-32.932C90.727,358.125,80,342.969,80,326.039V80h96c13.234,0,24-10.766,24-24V40c0-13.234,10.766-24,24-24h32
	c13.234,0,24,10.766,24,24v16c0,13.234,10.766,24,24,24h96V326.039z"/>
<path d="M240,32c-13.234,0-24,10.766-24,24s10.766,24,24,24s24-10.766,24-24S253.234,32,240,32z M240,64c-4.414,0-8-3.59-8-8
	s3.586-8,8-8s8,3.59,8,8S244.414,64,240,64z"/>
<path d="M247.336,132.809C246.07,129.891,243.188,128,240,128s-6.07,1.891-7.336,4.809l-48.102,110.633
	c-8.156,18.754-6.328,40.156,4.883,57.254S219.555,328,240,328s39.344-10.207,50.555-27.305s13.039-38.5,4.883-57.254
	L247.336,132.809z M277.172,291.922C268.93,304.492,255.031,312,240,312s-28.93-7.508-37.172-20.078
	c-8.242-12.574-9.586-28.313-3.594-42.098L240,156.063l40.766,93.762C286.758,263.609,285.414,279.348,277.172,291.922z"/>
<rect x="216.003" y="268.686" transform="matrix(-0.7071 0.7071 -0.7071 -0.7071 580.3856 319.5927)" width="16" height="22.624"/>
<rect x="202.458" y="228.005" transform="matrix(-0.3715 0.9284 -0.9284 -0.3715 526.3243 115.7038)" width="43.08" height="16"/>
<g>
</g>
<g>
</g>
<g>
</g>
<g>
</g>
<g>
</g>
<g>
</g>
<g>
</g>
<g>
</g>
<g>
</g>
<g>
</g>
<g>
</g>
<g>
</g>
<g>
</g>
<g>
</g>
<g>
</g>
</svg>
